<?xml version="1.0" standalone="no"?>
<!DOCTYPE svg PUBLIC "-//W3C//DTD SVG 20010904//EN"
 "http://www.w3.org/TR/2001/REC-SVG-20010904/DTD/svg10.dtd">
<svg version="1.0" xmlns="http://www.w3.org/2000/svg"
 width="794.000000pt" height="362.000000pt" viewBox="0 0 794.000000 362.000000"
 preserveAspectRatio="xMidYMid meet">

<g transform="translate(0.000000,362.000000) scale(0.100000,-0.100000)"
fill="#000000" stroke="none">
<path d="M2010 3340 c-13 -18 -26 -20 -122 -20 -101 0 -108 -1 -108 -20 0 -19
-7 -20 -190 -20 -183 0 -190 -1 -190 -20 0 -18 -7 -20 -60 -20 -33 0 -60 -4
-60 -10 0 -5 -9 -10 -20 -10 -11 0 -20 -4 -20 -10 0 -5 -8 -10 -18 -10 -10 0
-24 -9 -32 -20 -8 -11 -22 -20 -32 -20 -10 0 -18 -4 -18 -10 0 -5 -9 -10 -20
-10 -11 0 -20 -4 -20 -10 0 -5 -9 -10 -20 -10 -11 0 -20 -4 -20 -10 0 -5 -13
-10 -28 -10 -16 0 -34 -8 -42 -20 -11 -15 -26 -20 -60 -20 -34 0 -49 -5 -60
-20 -8 -12 -26 -20 -42 -20 -21 0 -28 -5 -28 -20 0 -13 -7 -20 -20 -20 -18 0
-20 -7 -20 -68 0 -56 -3 -70 -20 -82 -11 -8 -20 -22 -20 -32 0 -11 -7 -18 -20
-18 -18 0 -20 -7 -20 -76 0 -78 11 -104 44 -104 9 0 16 -4 16 -10 0 -5 9 -10
20 -10 11 0 20 -4 20 -10 0 -5 5 -10 10 -10 6 0 10 14 10 30 0 17 -4 30 -10
30 -6 0 -10 30 -10 70 0 63 2 70 20 70 13 0 20 7 20 20 0 11 5 20 10 20 14 0
12 -37 -2 -44 -10 -5 -10 -7 0 -12 6 -3 12 -19 12 -35 0 -26 4 -29 30 -29 23
0 30 -4 30 -20 0 -13 7 -20 20 -20 13 0 20 -7 20 -20 0 -15 -7 -20 -26 -20
-23 0 -54 -20 -54 -34 0 -3 9 -6 20 -6 11 0 20 -4 20 -10 0 -5 18 -10 40 -10
22 0 40 5 40 10 0 6 7 10 16 10 9 0 26 10 37 23 13 15 21 18 24 10 3 -7 18
-13 34 -13 16 0 29 -4 29 -10 0 -5 18 -10 40 -10 22 0 40 5 40 10 0 6 18 10
40 10 22 0 40 5 40 10 0 6 9 10 20 10 13 0 20 7 20 20 0 11 5 20 10 20 6 0 10
9 10 20 0 19 7 20 100 20 93 0 100 -1 100 -20 0 -17 7 -20 40 -20 l40 0 0 -50
c0 -39 -3 -50 -16 -50 -9 0 -29 -13 -44 -30 -15 -16 -35 -30 -44 -30 -9 0 -16
-4 -16 -10 0 -5 -8 -10 -18 -10 -10 0 -24 -9 -32 -20 -8 -11 -22 -20 -32 -20
-11 0 -18 -7 -18 -20 0 -17 -7 -20 -40 -20 -33 0 -40 -3 -40 -20 0 -13 -7 -20
-20 -20 -13 0 -20 -7 -20 -20 0 -15 -7 -20 -28 -20 -16 0 -34 -8 -42 -20 -8
-11 -21 -20 -30 -20 -9 0 -22 -9 -30 -20 -8 -11 -22 -20 -32 -20 -10 0 -18 -4
-18 -10 0 -5 -9 -10 -20 -10 -11 0 -20 -4 -20 -10 0 -6 -40 -10 -100 -10 -60
0 -100 -4 -100 -10 0 -5 -9 -10 -20 -10 -11 0 -20 5 -20 10 0 6 -22 10 -50 10
-27 0 -50 5 -50 10 0 6 -9 10 -20 10 -11 0 -20 5 -20 10 0 17 -70 11 -88 -7
-12 -12 -13 -18 -4 -21 6 -2 12 -17 12 -33 0 -21 -5 -29 -18 -29 -10 0 -24 -9
-32 -20 -11 -15 -26 -20 -62 -20 -41 0 -48 -3 -48 -20 0 -17 7 -20 40 -20 32
0 40 -4 40 -18 0 -10 9 -24 20 -32 11 -8 20 -18 20 -22 0 -4 -9 -8 -20 -8 -13
0 -20 -7 -20 -20 0 -17 7 -20 40 -20 33 0 40 -3 40 -20 0 -13 7 -20 20 -20 11
0 20 -4 20 -10 0 -5 9 -10 20 -10 11 0 20 5 20 10 0 6 33 10 80 10 47 0 80 4
80 10 0 6 23 10 50 10 28 0 50 -4 50 -10 0 -5 9 -10 20 -10 17 0 20 -7 20 -40
0 -33 3 -40 20 -40 13 0 20 7 20 20 0 13 7 20 20 20 13 0 20 7 20 20 0 11 5
20 10 20 6 0 10 9 10 20 0 11 5 20 10 20 6 0 10 9 10 20 0 11 5 20 10 20 6 0
10 9 10 20 0 13 7 20 20 20 13 0 20 7 20 20 0 13 7 20 20 20 11 0 20 5 20 10
0 6 9 10 20 10 11 0 20 5 20 10 0 6 18 10 40 10 33 0 40 3 40 20 0 18 7 20 88
20 76 0 89 3 102 20 8 12 26 20 42 20 15 0 28 5 28 10 0 6 9 10 20 10 11 0 20
5 20 10 0 6 16 10 36 10 38 0 64 18 64 44 0 9 8 16 19 16 11 0 22 6 25 13 5
10 7 10 12 0 4 -9 29 -13 75 -13 39 0 69 -4 69 -10 0 -5 9 -10 20 -10 11 0 20
-4 20 -10 0 -5 -9 -10 -20 -10 -11 0 -20 -4 -20 -10 0 -5 -9 -10 -20 -10 -11
0 -20 -4 -20 -10 0 -5 -13 -10 -30 -10 -16 0 -30 -4 -30 -10 0 -6 -27 -10 -60
-10 -33 0 -60 -4 -60 -10 0 -5 -13 -10 -30 -10 -16 0 -30 -4 -30 -10 0 -5 -13
-10 -30 -10 -23 0 -30 -4 -30 -20 0 -13 -7 -20 -20 -20 -13 0 -20 -7 -20 -20
0 -13 -7 -20 -20 -20 -17 0 -20 -7 -20 -40 l0 -40 60 0 60 0 0 -70 c0 -58 3
-70 16 -70 9 0 25 9 35 21 16 19 20 20 34 6 17 -17 21 -67 5 -67 -5 0 -10 -9
-10 -20 0 -18 7 -20 60 -20 53 0 60 -2 60 -20 0 -16 7 -20 30 -20 23 0 30 4
30 20 0 17 7 20 40 20 33 0 40 3 40 20 0 13 7 20 20 20 11 0 20 7 20 15 0 17
84 105 100 105 16 0 80 67 80 85 0 8 9 15 20 15 13 0 20 7 20 20 0 15 7 20 28
20 16 0 34 8 42 20 8 11 22 20 32 20 11 0 18 7 18 20 0 15 7 20 28 20 16 0 34
8 42 20 8 11 22 20 32 20 10 0 18 5 18 10 0 6 9 10 20 10 11 0 20 5 20 10 0 6
14 10 30 10 17 0 30 5 30 10 0 6 8 10 18 10 10 0 24 9 32 20 12 16 26 20 72
20 51 0 58 2 58 20 0 18 7 20 80 20 73 0 80 2 80 20 0 19 7 20 130 20 123 0
130 1 130 20 0 20 7 20 308 20 296 0 308 1 322 20 8 11 22 20 32 20 11 0 18 7
18 20 0 19 7 20 150 20 143 0 150 -1 150 -20 0 -18 7 -20 68 -20 56 0 70 -3
82 -20 8 -12 26 -20 42 -20 21 0 28 -5 28 -20 0 -17 7 -20 40 -20 33 0 40 -3
40 -20 0 -17 7 -20 40 -20 33 0 40 -3 40 -20 0 -13 7 -20 20 -20 11 0 20 -4
20 -10 0 -5 8 -10 18 -10 10 0 24 -9 32 -20 8 -11 22 -20 32 -20 10 0 18 -4
18 -10 0 -5 9 -10 20 -10 11 0 20 -4 20 -10 0 -5 9 -10 20 -10 13 0 20 -7 20
-20 0 -17 7 -20 40 -20 22 0 40 -4 40 -10 0 -6 -27 -10 -60 -10 -33 0 -60 4
-60 10 0 6 -9 10 -20 10 -11 0 -20 5 -20 10 0 6 -8 10 -18 10 -10 0 -24 9 -32
20 -8 11 -26 20 -40 20 -14 0 -32 9 -40 20 -8 11 -22 20 -32 20 -10 0 -18 5
-18 10 0 6 -9 10 -20 10 -11 0 -20 5 -20 10 0 6 -9 10 -20 10 -13 0 -20 7 -20
20 0 17 -7 20 -50 20 -43 0 -50 3 -50 20 0 17 -7 20 -40 20 -33 0 -40 3 -40
20 0 19 -7 20 -100 20 -60 0 -100 4 -100 10 0 6 -9 10 -20 10 -11 0 -20 5 -20
10 0 6 -22 10 -50 10 -43 0 -50 -3 -50 -20 0 -13 -7 -20 -20 -20 -13 0 -20 -7
-20 -20 0 -18 7 -20 60 -20 53 0 60 -2 60 -20 0 -16 7 -20 30 -20 23 0 30 -4
30 -20 0 -13 7 -20 20 -20 13 0 20 -7 20 -18 0 -10 9 -24 20 -32 11 -8 20 -22
20 -32 0 -11 7 -18 20 -18 13 0 20 -7 20 -20 0 -13 7 -20 20 -20 13 0 20 -7
20 -20 0 -13 7 -20 18 -20 10 0 24 -9 32 -20 10 -14 26 -20 52 -20 31 0 38 -4
38 -20 0 -18 7 -20 80 -20 73 0 80 -2 80 -20 0 -13 7 -20 20 -20 11 0 20 5 20
10 0 6 9 10 20 10 11 0 20 5 20 10 0 6 40 10 100 10 93 0 100 1 100 20 0 19 7
20 140 20 133 0 140 -1 140 -20 0 -17 7 -20 40 -20 l40 0 0 40 0 40 218 0
c206 0 218 -1 232 -20 12 -17 26 -20 82 -20 61 0 68 -2 68 -20 0 -18 7 -20 60
-20 l60 0 0 -40 0 -40 -110 0 c-67 0 -110 4 -110 10 0 6 -13 10 -30 10 -16 0
-30 5 -30 10 0 6 -22 10 -50 10 -43 0 -50 3 -50 20 0 17 -7 20 -48 20 -36 0
-51 -5 -62 -20 -8 -11 -21 -20 -30 -20 -9 0 -22 9 -30 20 -12 16 -26 20 -72
20 -51 0 -58 -2 -58 -20 0 -17 7 -20 48 -20 36 0 51 -5 62 -20 10 -14 26 -20
50 -20 24 0 40 -6 50 -20 8 -11 22 -20 32 -20 10 0 18 -4 18 -10 0 -5 18 -10
40 -10 33 0 40 -3 40 -20 0 -17 7 -20 50 -20 43 0 50 -3 50 -20 0 -17 7 -20
40 -20 22 0 40 5 40 10 0 6 9 10 20 10 11 0 20 5 20 10 0 6 18 10 40 10 33 0
40 3 40 20 0 12 7 20 16 20 8 0 33 18 54 40 36 38 70 52 70 30 0 -5 9 -10 20
-10 11 0 20 -4 20 -10 0 -5 14 -10 30 -10 17 0 30 -4 30 -10 0 -5 14 -10 30
-10 17 0 30 -4 30 -10 0 -5 9 -10 20 -10 11 0 20 -4 20 -10 0 -5 9 -10 20 -10
11 0 20 -4 20 -10 0 -5 17 -10 38 -10 26 0 42 -6 52 -20 12 -16 26 -20 72 -20
51 0 58 2 58 20 0 13 7 20 20 20 16 0 20 7 20 38 0 26 6 42 20 52 21 15 28 50
10 50 -5 0 -10 9 -10 20 0 11 -4 20 -10 20 -6 0 -10 27 -10 60 0 53 -2 60 -20
60 -11 0 -20 5 -20 10 0 6 -9 10 -20 10 -11 0 -20 5 -20 10 0 6 -9 10 -20 10
-11 0 -20 -4 -20 -10 0 -5 -18 -10 -40 -10 -22 0 -40 -4 -40 -10 0 -6 -37 -10
-90 -10 -53 0 -90 4 -90 10 0 6 -9 10 -20 10 -11 0 -20 5 -20 10 0 6 -7 10
-16 10 -9 0 -29 14 -44 30 -15 17 -35 30 -44 30 -9 0 -16 8 -16 20 0 16 -7 20
-30 20 -23 0 -30 4 -30 20 0 17 -7 20 -40 20 -33 0 -40 3 -40 20 0 13 -7 20
-20 20 -13 0 -20 7 -20 20 0 16 -7 20 -38 20 -26 0 -42 6 -52 20 -10 14 -26
20 -52 20 -31 0 -38 -4 -38 -20 0 -19 -7 -20 -118 -20 -106 0 -119 2 -132 20
-8 11 -25 20 -38 20 -26 0 -92 61 -92 85 0 8 -9 15 -20 15 -17 0 -20 7 -20 40
0 33 -3 40 -20 40 -18 0 -20 7 -20 60 0 53 -2 60 -20 60 -13 0 -20 7 -20 18 0
10 -9 24 -20 32 -11 8 -20 22 -20 32 0 11 -7 18 -20 18 -13 0 -20 7 -20 20 0
13 -7 20 -18 20 -10 0 -24 9 -32 20 -8 11 -22 20 -32 20 -11 0 -18 7 -18 20 0
17 -7 20 -40 20 l-40 0 0 40 c0 40 0 40 38 40 26 0 42 6 52 20 13 19 26 20
192 20 112 0 178 4 178 10 0 6 14 10 30 10 17 0 30 5 30 10 0 6 53 10 140 10
87 0 140 -4 140 -10 0 -5 14 -10 30 -10 17 0 30 -4 30 -10 0 -6 40 -10 100
-10 93 0 100 -1 100 -20 0 -18 7 -20 60 -20 53 0 60 -2 60 -20 0 -18 7 -20 70
-20 63 0 70 -2 70 -20 0 -16 7 -20 38 -20 26 0 42 -6 52 -20 11 -15 26 -20 60
-20 34 0 49 -5 60 -20 10 -14 26 -20 52 -20 21 0 38 -4 38 -10 0 -5 9 -10 20
-10 11 0 20 -4 20 -10 0 -5 18 -10 40 -10 22 0 40 -4 40 -10 0 -5 18 -10 40
-10 22 0 40 -4 40 -10 0 -5 23 -10 50 -10 28 0 50 -4 50 -10 0 -6 90 -10 250
-10 160 0 250 4 250 10 0 6 23 10 50 10 28 0 50 5 50 10 0 6 18 10 40 10 22 0
40 5 40 10 0 6 9 10 20 10 11 0 20 5 20 10 0 6 9 10 20 10 11 0 20 5 20 10 0
6 9 10 20 10 13 0 20 7 20 20 0 13 7 20 20 20 13 0 20 7 20 20 0 11 5 20 10
20 6 0 10 18 10 40 0 22 5 40 10 40 15 0 12 70 -4 86 -17 16 -46 19 -46 4 0
-5 -9 -10 -20 -10 -13 0 -20 -7 -20 -20 0 -11 -4 -20 -10 -20 -5 0 -10 -18
-10 -40 0 -33 -3 -40 -20 -40 -13 0 -20 -7 -20 -20 0 -13 -7 -20 -20 -20 -13
0 -20 -7 -20 -20 0 -13 -7 -20 -20 -20 -11 0 -20 -4 -20 -10 0 -5 -9 -10 -20
-10 -11 0 -20 -4 -20 -10 0 -5 -13 -10 -30 -10 -16 0 -30 -4 -30 -10 0 -5 -9
-10 -20 -10 -11 0 -20 -4 -20 -10 0 -6 -33 -10 -80 -10 -47 0 -80 -4 -80 -10
0 -5 -18 -10 -40 -10 -22 0 -40 5 -40 10 0 6 -50 10 -130 10 -80 0 -130 4
-130 10 0 6 -13 10 -30 10 -16 0 -30 5 -30 10 0 6 -27 10 -60 10 -33 0 -60 4
-60 10 0 6 -9 10 -20 10 -11 0 -20 5 -20 10 0 6 -27 10 -60 10 -53 0 -60 2
-60 20 0 17 -7 20 -50 20 -43 0 -50 3 -50 20 0 18 -7 20 -60 20 -53 0 -60 2
-60 20 0 17 -7 20 -40 20 -33 0 -40 3 -40 20 0 18 -7 20 -58 20 -46 0 -60 4
-72 20 -10 14 -26 20 -52 20 -21 0 -38 5 -38 10 0 6 -18 10 -40 10 -22 0 -40
5 -40 10 0 6 -9 10 -20 10 -11 0 -20 5 -20 10 0 6 -30 10 -70 10 -40 0 -70 4
-70 10 0 6 -18 10 -40 10 -22 0 -40 5 -40 10 0 6 -40 10 -100 10 -60 0 -100
-4 -100 -10 0 -5 -22 -10 -50 -10 -27 0 -50 -4 -50 -10 0 -6 -53 -10 -140 -10
-87 0 -140 -4 -140 -10 0 -5 -22 -10 -50 -10 -27 0 -50 -4 -50 -10 0 -6 -30
-10 -70 -10 -40 0 -70 -4 -70 -10 0 -6 -27 -10 -60 -10 -33 0 -60 -4 -60 -10
0 -5 -18 -10 -40 -10 -22 0 -40 -4 -40 -10 0 -20 -72 -11 -93 13 -13 15 -21
18 -24 10 -3 -8 -22 -13 -44 -13 -21 0 -39 -4 -39 -10 0 -6 -37 -10 -90 -10
-83 0 -90 -1 -90 -20 0 -18 -7 -20 -70 -20 -63 0 -70 -2 -70 -20 0 -20 -7 -20
-340 -20 -333 0 -340 0 -340 20 0 18 -7 20 -60 20 -53 0 -60 2 -60 20 0 13 -7
20 -20 20 -11 0 -20 5 -20 10 0 6 -9 10 -20 10 -11 0 -20 5 -20 10 0 6 -7 10
-16 10 -9 0 -29 14 -44 30 -17 18 -38 30 -54 30 -19 0 -26 5 -26 20 0 13 -7
20 -20 20 -11 0 -20 5 -20 10 0 6 -9 10 -20 10 -11 0 -20 5 -20 10 0 6 -9 10
-20 10 -13 0 -20 7 -20 20 0 18 -7 20 -60 20 -53 0 -60 2 -60 20 0 18 -7 20
-70 20 -40 0 -70 4 -70 10 0 6 -9 10 -20 10 -11 0 -20 5 -20 10 0 6 -89 10
-248 10 -236 0 -248 -1 -262 -20z m-1104 -454 c21 -22 17 -26 -26 -26 -43 0
-47 3 -27 25 16 18 35 19 53 1z m1654 -386 c0 -13 -7 -20 -20 -20 -11 0 -20
-4 -20 -10 0 -5 -13 -10 -30 -10 -16 0 -30 -4 -30 -10 0 -5 -9 -10 -19 -10
-11 0 -22 -6 -25 -12 -5 -10 -7 -10 -12 0 -3 6 -14 12 -25 12 -10 0 -19 5 -19
10 0 6 9 10 20 10 13 0 20 7 20 20 0 17 7 20 40 20 22 0 40 5 40 10 0 6 18 10
40 10 33 0 40 -3 40 -20z m-300 -140 c0 -17 -7 -20 -40 -20 -33 0 -40 -3 -40
-20 0 -16 -7 -20 -38 -20 -26 0 -42 -6 -52 -20 -10 -14 -26 -20 -52 -20 -31 0
-38 4 -38 20 0 13 7 20 20 20 13 0 20 7 20 20 0 13 7 20 20 20 13 0 20 7 20
20 0 19 7 20 90 20 83 0 90 -1 90 -20z"/>
<path d="M820 2540 c0 -13 7 -20 20 -20 24 0 25 6 6 26 -20 19 -26 18 -26 -6z"/>
<path d="M700 1180 l0 -300 68 0 67 0 108 157 107 157 0 -157 0 -157 85 0 85
0 -2 298 -3 297 -67 3 -66 3 -109 -158 -108 -158 -3 158 -3 157 -79 0 -80 0 0
-300z"/>
<path d="M2890 1415 l0 -65 90 0 90 0 0 -235 0 -235 80 0 80 0 0 235 0 235 90
0 90 0 0 65 0 65 -260 0 -260 0 0 -65z"/>
<path d="M1297 1324 c-4 -4 -7 -106 -7 -226 l0 -218 80 0 80 0 0 80 0 80 55 0
55 0 0 -80 0 -80 75 0 75 0 0 225 0 225 -75 0 -75 0 0 -80 0 -80 -55 0 -54 0
-3 78 -3 77 -70 3 c-39 1 -74 0 -78 -4z"/>
<path d="M1895 1311 c-82 -38 -125 -111 -125 -211 0 -72 19 -123 63 -168 78
-80 256 -80 334 0 33 34 56 81 46 92 -4 3 -35 6 -70 6 -50 0 -67 -4 -83 -20
-43 -43 -130 -17 -130 38 0 22 3 22 145 22 l145 0 0 25 c0 95 -50 182 -124
216 -54 25 -148 25 -201 0z m152 -113 c13 -12 23 -25 23 -30 0 -4 -31 -8 -70
-8 -76 0 -91 14 -48 44 31 22 68 20 95 -6z"/>
<path d="M2250 1270 l0 -60 70 0 70 0 0 -165 0 -165 75 0 75 0 2 163 3 162 73
3 73 3 -3 57 -3 57 -217 3 -218 2 0 -60z"/>
<path d="M3514 1311 c-160 -73 -167 -331 -11 -413 33 -18 58 -23 122 -23 70 0
86 4 128 28 43 25 87 84 87 117 0 6 -28 10 -68 10 -56 0 -72 -4 -87 -20 -26
-29 -98 -28 -119 2 -9 12 -16 30 -16 40 0 16 13 18 145 18 l145 0 0 38 c0 88
-45 164 -121 203 -50 25 -149 25 -205 0z m156 -111 c33 -33 24 -40 -50 -40
-40 0 -70 4 -70 10 0 21 41 50 70 50 17 0 39 -9 50 -20z"/>
<path d="M3965 1318 c-2 -7 -5 -70 -7 -139 -4 -131 -18 -179 -53 -179 -12 0
-15 -14 -15 -60 l0 -60 43 0 c105 0 154 64 168 218 4 53 8 100 9 105 0 4 16 7
35 7 l35 0 0 -165 0 -165 75 0 75 0 0 225 0 225 -180 0 c-136 0 -182 -3 -185
-12z"/>
<path d="M4511 1308 c-151 -75 -157 -332 -8 -410 63 -33 185 -32 247 2 46 26
90 80 90 111 0 17 -8 19 -68 19 -55 0 -71 -4 -85 -20 -17 -20 -80 -28 -103
-12 -17 11 -36 51 -29 62 4 6 66 10 147 10 l140 0 -4 65 c-5 79 -41 137 -107
172 -60 31 -158 32 -220 1z m157 -104 c43 -30 28 -44 -48 -44 -67 0 -70 1 -60
20 21 40 70 51 108 24z"/>
<path d="M4910 1105 l0 -225 80 0 80 0 0 70 c0 95 20 95 78 0 l43 -70 95 0 94
0 -70 105 c-38 57 -70 109 -70 115 0 6 27 53 60 106 34 52 63 101 67 109 4 13
-10 15 -84 15 l-88 0 -48 -80 c-27 -44 -55 -80 -63 -80 -11 0 -14 17 -14 80
l0 80 -80 0 -80 0 0 -225z"/>
<path d="M5501 1308 c-60 -31 -99 -82 -113 -148 -40 -193 112 -332 303 -277
97 29 152 110 151 226 -1 86 -31 145 -97 186 -41 25 -61 30 -124 33 -64 3 -83
-1 -120 -20z m139 -98 c65 -35 45 -220 -24 -220 -42 0 -66 43 -66 117 0 55 4
67 25 88 27 27 37 30 65 15z"/>
<path d="M5910 1105 l0 -225 75 0 74 0 3 103 3 102 35 -102 35 -103 51 0 52 0
38 108 39 107 3 -107 3 -108 74 0 75 0 0 225 0 226 -92 -3 -93 -3 -45 -127
c-25 -69 -48 -129 -52 -133 -3 -4 -26 53 -50 127 l-43 133 -93 3 -92 3 0 -226z"/>
<path d="M5247 563 c-11 -19 16 -55 50 -69 59 -25 126 1 135 51 5 29 -47 35
-55 6 -7 -29 -63 -29 -72 -1 -6 20 -49 29 -58 13z"/>
<path d="M700 300 l0 -160 38 0 c38 0 39 1 98 102 l59 103 3 -102 3 -103 34 0
35 0 0 161 0 160 -37 -3 c-35 -3 -39 -7 -97 -106 l-61 -103 -3 105 -3 106 -34
0 -35 0 0 -160z"/>
<path d="M1040 300 l0 -160 35 0 35 0 0 65 0 65 60 0 60 0 0 -65 0 -65 40 0
41 0 -3 158 -3 157 -35 0 -35 0 -3 -62 -3 -63 -59 0 -60 0 0 65 0 65 -35 0
-35 0 0 -160z"/>
<path d="M1334 446 c-14 -36 0 -51 49 -54 l47 -3 0 -125 0 -124 40 0 40 0 0
125 0 125 50 0 50 0 0 35 0 35 -135 0 c-109 0 -137 -3 -141 -14z"/>
<path d="M1710 442 c-23 -11 -43 -33 -57 -62 -70 -137 35 -278 177 -240 43 12
90 52 90 76 0 21 -58 17 -87 -6 -14 -11 -36 -20 -48 -20 -33 0 -75 37 -75 66
0 24 0 24 111 24 l111 0 -7 43 c-10 59 -35 99 -75 119 -44 23 -95 23 -140 0z
m120 -62 c38 -38 27 -50 -50 -50 -56 0 -70 3 -70 15 0 25 38 55 70 55 17 0 39
-9 50 -20z"/>
<path d="M1980 240 l0 -220 35 0 35 0 0 88 c1 67 3 83 11 69 16 -27 72 -48
109 -41 118 24 144 239 37 304 -45 28 -89 25 -126 -6 l-31 -26 0 26 c0 23 -4
26 -35 26 l-35 0 0 -220z m190 140 c25 -25 34 -61 27 -107 -8 -48 -33 -73 -72
-73 -39 0 -64 25 -72 73 -11 69 22 127 72 127 14 0 34 -9 45 -20z"/>
<path d="M2330 300 l0 -160 35 0 35 0 0 65 0 65 60 0 60 0 0 -65 0 -65 35 0
35 0 0 161 0 160 -32 -3 c-33 -3 -33 -3 -36 -65 l-3 -63 -59 0 -60 0 0 65 0
65 -35 0 -35 0 0 -160z"/>
<path d="M2725 441 c-44 -27 -62 -51 -75 -100 -25 -93 28 -189 114 -205 47 -9
112 9 142 39 35 35 31 55 -11 55 -19 0 -35 -4 -35 -8 0 -12 -46 -32 -71 -32
-26 0 -69 43 -69 70 0 19 6 20 111 20 l112 0 -7 47 c-3 26 -13 57 -22 70 -38
59 -130 81 -189 44z m124 -67 c12 -15 21 -31 21 -35 0 -5 -34 -9 -75 -9 -82 0
-90 7 -53 47 30 33 80 31 107 -3z"/>
<path d="M2964 446 c-14 -37 0 -51 54 -54 l52 -3 0 -125 0 -124 35 0 35 0 0
125 0 125 50 0 50 0 0 35 0 35 -135 0 c-109 0 -137 -3 -141 -14z"/>
<path d="M3540 300 l0 -160 35 0 35 0 0 125 0 125 60 0 60 0 0 -125 0 -125 35
0 35 0 0 160 0 160 -130 0 -130 0 0 -160z"/>
<path d="M3870 240 l0 -220 35 0 35 0 0 88 c0 84 1 86 18 65 43 -55 136 -48
178 15 71 105 22 257 -87 269 -38 4 -50 1 -77 -22 l-32 -27 0 26 c0 23 -4 26
-35 26 l-35 0 0 -220z m190 142 c37 -30 40 -131 4 -166 -24 -24 -80 -20 -98 6
-23 33 -30 82 -16 122 18 56 67 73 110 38z"/>
<path d="M4282 440 c-48 -30 -72 -75 -72 -140 0 -75 24 -119 80 -148 114 -59
231 30 217 164 -3 32 -14 66 -28 85 -41 58 -135 77 -197 39z m127 -66 c27 -35
29 -122 4 -152 -60 -70 -148 1 -129 104 14 72 84 100 125 48z"/>
<path d="M4560 299 l0 -161 109 4 c100 3 112 5 135 27 34 32 35 79 3 109 -13
12 -28 22 -34 22 -6 0 2 13 18 30 23 23 29 35 24 52 -18 57 -66 78 -182 78
l-73 0 0 -161z m164 88 c10 -7 17 -22 14 -33 -2 -15 -13 -20 -56 -22 l-52 -3
0 35 c0 35 1 36 38 36 21 0 46 -6 56 -13z m20 -123 c37 -36 10 -64 -61 -64
l-53 0 0 40 0 40 49 0 c32 0 55 -6 65 -16z"/>
<path d="M4943 445 c-28 -12 -71 -60 -62 -69 12 -12 58 -8 79 7 44 30 100 20
100 -19 0 -27 1 -27 -84 -43 -81 -15 -108 -41 -104 -100 2 -35 9 -48 31 -65
40 -29 109 -27 142 4 l25 23 0 -21 c0 -18 6 -22 35 -22 l35 0 0 123 c0 95 -4
128 -16 145 -34 49 -115 66 -181 37z m101 -236 c-22 -25 -82 -22 -98 4 -17 27
5 51 60 63 l49 10 3 -29 c2 -17 -4 -37 -14 -48z"/>
<path d="M5207 454 c-4 -4 -7 -76 -7 -161 l0 -153 40 0 40 0 60 103 60 102 0
-102 0 -103 40 0 41 0 -3 158 -3 157 -36 3 c-35 3 -36 2 -95 -99 l-59 -101 -5
98 -5 99 -30 3 c-17 2 -34 0 -38 -4z"/>
<path d="M5590 456 c0 -2 -5 -50 -11 -107 -10 -104 -27 -149 -54 -149 -12 0
-15 -16 -15 -75 l0 -75 40 0 40 0 0 45 0 45 100 0 100 0 0 -45 0 -45 40 0 40
0 0 75 c0 73 -1 75 -25 75 l-24 0 -3 128 -3 127 -112 3 c-62 1 -113 1 -113 -2z
m158 -158 l3 -98 -67 0 c-59 0 -65 2 -58 18 4 9 12 49 17 87 13 100 11 97 59
93 l43 -3 3 -97z"/>
<path d="M5970 438 c-19 -13 -43 -39 -52 -58 -22 -42 -23 -118 -4 -165 26 -61
110 -95 185 -75 40 11 96 64 85 81 -10 16 -54 10 -84 -12 -40 -30 -94 -20
-115 21 -8 16 -15 34 -15 40 0 6 40 10 111 10 l112 0 -5 51 c-4 42 -12 57 -41
87 -30 30 -44 36 -89 40 -44 3 -59 0 -88 -20z m130 -58 c39 -39 27 -50 -55
-50 -82 0 -89 7 -50 45 30 31 77 33 105 5z"/>
<path d="M6247 454 c-4 -4 -7 -103 -7 -221 l0 -213 40 0 40 0 0 82 0 81 26
-24 c51 -48 138 -23 176 52 23 43 23 130 1 176 -37 78 -149 98 -187 34 -8 -13
-11 -12 -16 9 -4 19 -13 26 -36 28 -16 2 -33 0 -37 -4z m196 -86 c25 -34 27
-106 3 -142 -13 -21 -25 -26 -56 -26 -34 0 -42 4 -55 30 -8 16 -15 50 -15 75
0 86 77 125 123 63z"/>
<path d="M3280 315 l0 -35 95 0 95 0 0 35 0 35 -95 0 -95 0 0 -35z"/>
</g>
</svg>
